<mxfile host="Electron" agent="Mozilla/5.0 (Macintosh; Intel Mac OS X 10_15_7) AppleWebKit/537.36 (KHTML, like Gecko) draw.io/25.0.2 Chrome/128.0.6613.186 Electron/32.2.5 Safari/537.36" version="25.0.2">
  <diagram name="Page-1" id="7O_XdmsdUJWnm0bT749b">
    <mxGraphModel dx="1008" dy="824" grid="1" gridSize="10" guides="1" tooltips="1" connect="1" arrows="1" fold="1" page="1" pageScale="1" pageWidth="850" pageHeight="1100" math="0" shadow="0">
      <root>
        <mxCell id="0" />
        <mxCell id="1" parent="0" />
        <mxCell id="kp_PE9Vq5TOkweq_zNzJ-2" value="" style="shape=table;startSize=0;container=1;collapsible=0;childLayout=tableLayout;fillColor=none;dashed=1;" parent="1" vertex="1">
          <mxGeometry x="160" y="80" width="360" height="360" as="geometry" />
        </mxCell>
        <mxCell id="kp_PE9Vq5TOkweq_zNzJ-3" value="" style="shape=tableRow;horizontal=0;startSize=0;swimlaneHead=0;swimlaneBody=0;strokeColor=inherit;top=0;left=0;bottom=0;right=0;collapsible=0;dropTarget=0;fillColor=none;points=[[0,0.5],[1,0.5]];portConstraint=eastwest;" parent="kp_PE9Vq5TOkweq_zNzJ-2" vertex="1">
          <mxGeometry width="360" height="60" as="geometry" />
        </mxCell>
        <mxCell id="kp_PE9Vq5TOkweq_zNzJ-4" value="" style="shape=partialRectangle;html=1;whiteSpace=wrap;connectable=0;strokeColor=inherit;overflow=hidden;fillColor=none;top=0;left=0;bottom=0;right=0;pointerEvents=1;" parent="kp_PE9Vq5TOkweq_zNzJ-3" vertex="1">
          <mxGeometry width="60" height="60" as="geometry">
            <mxRectangle width="60" height="60" as="alternateBounds" />
          </mxGeometry>
        </mxCell>
        <mxCell id="kp_PE9Vq5TOkweq_zNzJ-5" value="" style="shape=partialRectangle;html=1;whiteSpace=wrap;connectable=0;strokeColor=inherit;overflow=hidden;fillColor=none;top=0;left=0;bottom=0;right=0;pointerEvents=1;" parent="kp_PE9Vq5TOkweq_zNzJ-3" vertex="1">
          <mxGeometry x="60" width="60" height="60" as="geometry">
            <mxRectangle width="60" height="60" as="alternateBounds" />
          </mxGeometry>
        </mxCell>
        <mxCell id="kp_PE9Vq5TOkweq_zNzJ-6" value="" style="shape=partialRectangle;html=1;whiteSpace=wrap;connectable=0;strokeColor=inherit;overflow=hidden;fillColor=none;top=0;left=0;bottom=0;right=0;pointerEvents=1;" parent="kp_PE9Vq5TOkweq_zNzJ-3" vertex="1">
          <mxGeometry x="120" width="60" height="60" as="geometry">
            <mxRectangle width="60" height="60" as="alternateBounds" />
          </mxGeometry>
        </mxCell>
        <mxCell id="kp_PE9Vq5TOkweq_zNzJ-7" value="" style="shape=partialRectangle;html=1;whiteSpace=wrap;connectable=0;strokeColor=inherit;overflow=hidden;fillColor=none;top=0;left=0;bottom=0;right=0;pointerEvents=1;" parent="kp_PE9Vq5TOkweq_zNzJ-3" vertex="1">
          <mxGeometry x="180" width="60" height="60" as="geometry">
            <mxRectangle width="60" height="60" as="alternateBounds" />
          </mxGeometry>
        </mxCell>
        <mxCell id="kp_PE9Vq5TOkweq_zNzJ-8" value="" style="shape=partialRectangle;html=1;whiteSpace=wrap;connectable=0;strokeColor=inherit;overflow=hidden;fillColor=none;top=0;left=0;bottom=0;right=0;pointerEvents=1;" parent="kp_PE9Vq5TOkweq_zNzJ-3" vertex="1">
          <mxGeometry x="240" width="60" height="60" as="geometry">
            <mxRectangle width="60" height="60" as="alternateBounds" />
          </mxGeometry>
        </mxCell>
        <mxCell id="kp_PE9Vq5TOkweq_zNzJ-9" value="" style="shape=partialRectangle;html=1;whiteSpace=wrap;connectable=0;strokeColor=inherit;overflow=hidden;fillColor=none;top=0;left=0;bottom=0;right=0;pointerEvents=1;" parent="kp_PE9Vq5TOkweq_zNzJ-3" vertex="1">
          <mxGeometry x="300" width="60" height="60" as="geometry">
            <mxRectangle width="60" height="60" as="alternateBounds" />
          </mxGeometry>
        </mxCell>
        <mxCell id="kp_PE9Vq5TOkweq_zNzJ-11" value="" style="shape=tableRow;horizontal=0;startSize=0;swimlaneHead=0;swimlaneBody=0;strokeColor=inherit;top=0;left=0;bottom=0;right=0;collapsible=0;dropTarget=0;fillColor=none;points=[[0,0.5],[1,0.5]];portConstraint=eastwest;" parent="kp_PE9Vq5TOkweq_zNzJ-2" vertex="1">
          <mxGeometry y="60" width="360" height="60" as="geometry" />
        </mxCell>
        <mxCell id="kp_PE9Vq5TOkweq_zNzJ-12" value="" style="shape=partialRectangle;html=1;whiteSpace=wrap;connectable=0;strokeColor=inherit;overflow=hidden;fillColor=none;top=0;left=0;bottom=0;right=0;pointerEvents=1;" parent="kp_PE9Vq5TOkweq_zNzJ-11" vertex="1">
          <mxGeometry width="60" height="60" as="geometry">
            <mxRectangle width="60" height="60" as="alternateBounds" />
          </mxGeometry>
        </mxCell>
        <mxCell id="kp_PE9Vq5TOkweq_zNzJ-13" value="" style="shape=partialRectangle;html=1;whiteSpace=wrap;connectable=0;strokeColor=inherit;overflow=hidden;fillColor=none;top=0;left=0;bottom=0;right=0;pointerEvents=1;" parent="kp_PE9Vq5TOkweq_zNzJ-11" vertex="1">
          <mxGeometry x="60" width="60" height="60" as="geometry">
            <mxRectangle width="60" height="60" as="alternateBounds" />
          </mxGeometry>
        </mxCell>
        <mxCell id="kp_PE9Vq5TOkweq_zNzJ-14" value="" style="shape=partialRectangle;html=1;whiteSpace=wrap;connectable=0;strokeColor=inherit;overflow=hidden;fillColor=none;top=0;left=0;bottom=0;right=0;pointerEvents=1;" parent="kp_PE9Vq5TOkweq_zNzJ-11" vertex="1">
          <mxGeometry x="120" width="60" height="60" as="geometry">
            <mxRectangle width="60" height="60" as="alternateBounds" />
          </mxGeometry>
        </mxCell>
        <mxCell id="kp_PE9Vq5TOkweq_zNzJ-15" value="" style="shape=partialRectangle;html=1;whiteSpace=wrap;connectable=0;strokeColor=inherit;overflow=hidden;fillColor=none;top=0;left=0;bottom=0;right=0;pointerEvents=1;" parent="kp_PE9Vq5TOkweq_zNzJ-11" vertex="1">
          <mxGeometry x="180" width="60" height="60" as="geometry">
            <mxRectangle width="60" height="60" as="alternateBounds" />
          </mxGeometry>
        </mxCell>
        <mxCell id="kp_PE9Vq5TOkweq_zNzJ-16" value="" style="shape=partialRectangle;html=1;whiteSpace=wrap;connectable=0;strokeColor=inherit;overflow=hidden;fillColor=none;top=0;left=0;bottom=0;right=0;pointerEvents=1;" parent="kp_PE9Vq5TOkweq_zNzJ-11" vertex="1">
          <mxGeometry x="240" width="60" height="60" as="geometry">
            <mxRectangle width="60" height="60" as="alternateBounds" />
          </mxGeometry>
        </mxCell>
        <mxCell id="kp_PE9Vq5TOkweq_zNzJ-17" value="" style="shape=partialRectangle;html=1;whiteSpace=wrap;connectable=0;strokeColor=inherit;overflow=hidden;fillColor=none;top=0;left=0;bottom=0;right=0;pointerEvents=1;" parent="kp_PE9Vq5TOkweq_zNzJ-11" vertex="1">
          <mxGeometry x="300" width="60" height="60" as="geometry">
            <mxRectangle width="60" height="60" as="alternateBounds" />
          </mxGeometry>
        </mxCell>
        <mxCell id="kp_PE9Vq5TOkweq_zNzJ-19" value="" style="shape=tableRow;horizontal=0;startSize=0;swimlaneHead=0;swimlaneBody=0;strokeColor=inherit;top=0;left=0;bottom=0;right=0;collapsible=0;dropTarget=0;fillColor=none;points=[[0,0.5],[1,0.5]];portConstraint=eastwest;" parent="kp_PE9Vq5TOkweq_zNzJ-2" vertex="1">
          <mxGeometry y="120" width="360" height="62" as="geometry" />
        </mxCell>
        <mxCell id="kp_PE9Vq5TOkweq_zNzJ-20" value="" style="shape=partialRectangle;html=1;whiteSpace=wrap;connectable=0;strokeColor=inherit;overflow=hidden;fillColor=none;top=0;left=0;bottom=0;right=0;pointerEvents=1;" parent="kp_PE9Vq5TOkweq_zNzJ-19" vertex="1">
          <mxGeometry width="60" height="62" as="geometry">
            <mxRectangle width="60" height="62" as="alternateBounds" />
          </mxGeometry>
        </mxCell>
        <mxCell id="kp_PE9Vq5TOkweq_zNzJ-21" value="" style="shape=partialRectangle;html=1;whiteSpace=wrap;connectable=0;strokeColor=inherit;overflow=hidden;fillColor=none;top=0;left=0;bottom=0;right=0;pointerEvents=1;" parent="kp_PE9Vq5TOkweq_zNzJ-19" vertex="1">
          <mxGeometry x="60" width="60" height="62" as="geometry">
            <mxRectangle width="60" height="62" as="alternateBounds" />
          </mxGeometry>
        </mxCell>
        <mxCell id="kp_PE9Vq5TOkweq_zNzJ-22" value="" style="shape=partialRectangle;html=1;whiteSpace=wrap;connectable=0;strokeColor=inherit;overflow=hidden;fillColor=none;top=0;left=0;bottom=0;right=0;pointerEvents=1;" parent="kp_PE9Vq5TOkweq_zNzJ-19" vertex="1">
          <mxGeometry x="120" width="60" height="62" as="geometry">
            <mxRectangle width="60" height="62" as="alternateBounds" />
          </mxGeometry>
        </mxCell>
        <mxCell id="kp_PE9Vq5TOkweq_zNzJ-23" value="" style="shape=partialRectangle;html=1;whiteSpace=wrap;connectable=0;strokeColor=inherit;overflow=hidden;fillColor=none;top=0;left=0;bottom=0;right=0;pointerEvents=1;" parent="kp_PE9Vq5TOkweq_zNzJ-19" vertex="1">
          <mxGeometry x="180" width="60" height="62" as="geometry">
            <mxRectangle width="60" height="62" as="alternateBounds" />
          </mxGeometry>
        </mxCell>
        <mxCell id="kp_PE9Vq5TOkweq_zNzJ-24" value="" style="shape=partialRectangle;html=1;whiteSpace=wrap;connectable=0;strokeColor=inherit;overflow=hidden;fillColor=none;top=0;left=0;bottom=0;right=0;pointerEvents=1;" parent="kp_PE9Vq5TOkweq_zNzJ-19" vertex="1">
          <mxGeometry x="240" width="60" height="62" as="geometry">
            <mxRectangle width="60" height="62" as="alternateBounds" />
          </mxGeometry>
        </mxCell>
        <mxCell id="kp_PE9Vq5TOkweq_zNzJ-25" value="" style="shape=partialRectangle;html=1;whiteSpace=wrap;connectable=0;strokeColor=inherit;overflow=hidden;fillColor=none;top=0;left=0;bottom=0;right=0;pointerEvents=1;" parent="kp_PE9Vq5TOkweq_zNzJ-19" vertex="1">
          <mxGeometry x="300" width="60" height="62" as="geometry">
            <mxRectangle width="60" height="62" as="alternateBounds" />
          </mxGeometry>
        </mxCell>
        <mxCell id="kp_PE9Vq5TOkweq_zNzJ-27" value="" style="shape=tableRow;horizontal=0;startSize=0;swimlaneHead=0;swimlaneBody=0;strokeColor=inherit;top=0;left=0;bottom=0;right=0;collapsible=0;dropTarget=0;fillColor=none;points=[[0,0.5],[1,0.5]];portConstraint=eastwest;" parent="kp_PE9Vq5TOkweq_zNzJ-2" vertex="1">
          <mxGeometry y="182" width="360" height="58" as="geometry" />
        </mxCell>
        <mxCell id="kp_PE9Vq5TOkweq_zNzJ-28" value="" style="shape=partialRectangle;html=1;whiteSpace=wrap;connectable=0;strokeColor=inherit;overflow=hidden;fillColor=none;top=0;left=0;bottom=0;right=0;pointerEvents=1;" parent="kp_PE9Vq5TOkweq_zNzJ-27" vertex="1">
          <mxGeometry width="60" height="58" as="geometry">
            <mxRectangle width="60" height="58" as="alternateBounds" />
          </mxGeometry>
        </mxCell>
        <mxCell id="kp_PE9Vq5TOkweq_zNzJ-29" value="" style="shape=partialRectangle;html=1;whiteSpace=wrap;connectable=0;strokeColor=inherit;overflow=hidden;fillColor=none;top=0;left=0;bottom=0;right=0;pointerEvents=1;" parent="kp_PE9Vq5TOkweq_zNzJ-27" vertex="1">
          <mxGeometry x="60" width="60" height="58" as="geometry">
            <mxRectangle width="60" height="58" as="alternateBounds" />
          </mxGeometry>
        </mxCell>
        <mxCell id="kp_PE9Vq5TOkweq_zNzJ-30" value="" style="shape=partialRectangle;html=1;whiteSpace=wrap;connectable=0;strokeColor=inherit;overflow=hidden;fillColor=none;top=0;left=0;bottom=0;right=0;pointerEvents=1;" parent="kp_PE9Vq5TOkweq_zNzJ-27" vertex="1">
          <mxGeometry x="120" width="60" height="58" as="geometry">
            <mxRectangle width="60" height="58" as="alternateBounds" />
          </mxGeometry>
        </mxCell>
        <mxCell id="kp_PE9Vq5TOkweq_zNzJ-31" value="" style="shape=partialRectangle;html=1;whiteSpace=wrap;connectable=0;strokeColor=inherit;overflow=hidden;fillColor=none;top=0;left=0;bottom=0;right=0;pointerEvents=1;" parent="kp_PE9Vq5TOkweq_zNzJ-27" vertex="1">
          <mxGeometry x="180" width="60" height="58" as="geometry">
            <mxRectangle width="60" height="58" as="alternateBounds" />
          </mxGeometry>
        </mxCell>
        <mxCell id="kp_PE9Vq5TOkweq_zNzJ-32" value="" style="shape=partialRectangle;html=1;whiteSpace=wrap;connectable=0;strokeColor=inherit;overflow=hidden;fillColor=none;top=0;left=0;bottom=0;right=0;pointerEvents=1;" parent="kp_PE9Vq5TOkweq_zNzJ-27" vertex="1">
          <mxGeometry x="240" width="60" height="58" as="geometry">
            <mxRectangle width="60" height="58" as="alternateBounds" />
          </mxGeometry>
        </mxCell>
        <mxCell id="kp_PE9Vq5TOkweq_zNzJ-33" value="" style="shape=partialRectangle;html=1;whiteSpace=wrap;connectable=0;strokeColor=inherit;overflow=hidden;fillColor=none;top=0;left=0;bottom=0;right=0;pointerEvents=1;" parent="kp_PE9Vq5TOkweq_zNzJ-27" vertex="1">
          <mxGeometry x="300" width="60" height="58" as="geometry">
            <mxRectangle width="60" height="58" as="alternateBounds" />
          </mxGeometry>
        </mxCell>
        <mxCell id="kp_PE9Vq5TOkweq_zNzJ-35" value="" style="shape=tableRow;horizontal=0;startSize=0;swimlaneHead=0;swimlaneBody=0;strokeColor=inherit;top=0;left=0;bottom=0;right=0;collapsible=0;dropTarget=0;fillColor=none;points=[[0,0.5],[1,0.5]];portConstraint=eastwest;" parent="kp_PE9Vq5TOkweq_zNzJ-2" vertex="1">
          <mxGeometry y="240" width="360" height="60" as="geometry" />
        </mxCell>
        <mxCell id="kp_PE9Vq5TOkweq_zNzJ-36" value="" style="shape=partialRectangle;html=1;whiteSpace=wrap;connectable=0;strokeColor=inherit;overflow=hidden;fillColor=none;top=0;left=0;bottom=0;right=0;pointerEvents=1;" parent="kp_PE9Vq5TOkweq_zNzJ-35" vertex="1">
          <mxGeometry width="60" height="60" as="geometry">
            <mxRectangle width="60" height="60" as="alternateBounds" />
          </mxGeometry>
        </mxCell>
        <mxCell id="kp_PE9Vq5TOkweq_zNzJ-37" value="" style="shape=partialRectangle;html=1;whiteSpace=wrap;connectable=0;strokeColor=inherit;overflow=hidden;fillColor=none;top=0;left=0;bottom=0;right=0;pointerEvents=1;" parent="kp_PE9Vq5TOkweq_zNzJ-35" vertex="1">
          <mxGeometry x="60" width="60" height="60" as="geometry">
            <mxRectangle width="60" height="60" as="alternateBounds" />
          </mxGeometry>
        </mxCell>
        <mxCell id="kp_PE9Vq5TOkweq_zNzJ-38" value="" style="shape=partialRectangle;html=1;whiteSpace=wrap;connectable=0;strokeColor=inherit;overflow=hidden;fillColor=none;top=0;left=0;bottom=0;right=0;pointerEvents=1;" parent="kp_PE9Vq5TOkweq_zNzJ-35" vertex="1">
          <mxGeometry x="120" width="60" height="60" as="geometry">
            <mxRectangle width="60" height="60" as="alternateBounds" />
          </mxGeometry>
        </mxCell>
        <mxCell id="kp_PE9Vq5TOkweq_zNzJ-39" value="" style="shape=partialRectangle;html=1;whiteSpace=wrap;connectable=0;strokeColor=inherit;overflow=hidden;fillColor=none;top=0;left=0;bottom=0;right=0;pointerEvents=1;" parent="kp_PE9Vq5TOkweq_zNzJ-35" vertex="1">
          <mxGeometry x="180" width="60" height="60" as="geometry">
            <mxRectangle width="60" height="60" as="alternateBounds" />
          </mxGeometry>
        </mxCell>
        <mxCell id="kp_PE9Vq5TOkweq_zNzJ-40" value="" style="shape=partialRectangle;html=1;whiteSpace=wrap;connectable=0;strokeColor=inherit;overflow=hidden;fillColor=none;top=0;left=0;bottom=0;right=0;pointerEvents=1;" parent="kp_PE9Vq5TOkweq_zNzJ-35" vertex="1">
          <mxGeometry x="240" width="60" height="60" as="geometry">
            <mxRectangle width="60" height="60" as="alternateBounds" />
          </mxGeometry>
        </mxCell>
        <mxCell id="kp_PE9Vq5TOkweq_zNzJ-41" value="" style="shape=partialRectangle;html=1;whiteSpace=wrap;connectable=0;strokeColor=inherit;overflow=hidden;fillColor=none;top=0;left=0;bottom=0;right=0;pointerEvents=1;" parent="kp_PE9Vq5TOkweq_zNzJ-35" vertex="1">
          <mxGeometry x="300" width="60" height="60" as="geometry">
            <mxRectangle width="60" height="60" as="alternateBounds" />
          </mxGeometry>
        </mxCell>
        <mxCell id="kp_PE9Vq5TOkweq_zNzJ-43" value="" style="shape=tableRow;horizontal=0;startSize=0;swimlaneHead=0;swimlaneBody=0;strokeColor=inherit;top=0;left=0;bottom=0;right=0;collapsible=0;dropTarget=0;fillColor=none;points=[[0,0.5],[1,0.5]];portConstraint=eastwest;" parent="kp_PE9Vq5TOkweq_zNzJ-2" vertex="1">
          <mxGeometry y="300" width="360" height="60" as="geometry" />
        </mxCell>
        <mxCell id="kp_PE9Vq5TOkweq_zNzJ-44" value="" style="shape=partialRectangle;html=1;whiteSpace=wrap;connectable=0;strokeColor=inherit;overflow=hidden;fillColor=none;top=0;left=0;bottom=0;right=0;pointerEvents=1;" parent="kp_PE9Vq5TOkweq_zNzJ-43" vertex="1">
          <mxGeometry width="60" height="60" as="geometry">
            <mxRectangle width="60" height="60" as="alternateBounds" />
          </mxGeometry>
        </mxCell>
        <mxCell id="kp_PE9Vq5TOkweq_zNzJ-45" value="" style="shape=partialRectangle;html=1;whiteSpace=wrap;connectable=0;strokeColor=inherit;overflow=hidden;fillColor=none;top=0;left=0;bottom=0;right=0;pointerEvents=1;" parent="kp_PE9Vq5TOkweq_zNzJ-43" vertex="1">
          <mxGeometry x="60" width="60" height="60" as="geometry">
            <mxRectangle width="60" height="60" as="alternateBounds" />
          </mxGeometry>
        </mxCell>
        <mxCell id="kp_PE9Vq5TOkweq_zNzJ-46" value="" style="shape=partialRectangle;html=1;whiteSpace=wrap;connectable=0;strokeColor=inherit;overflow=hidden;fillColor=none;top=0;left=0;bottom=0;right=0;pointerEvents=1;" parent="kp_PE9Vq5TOkweq_zNzJ-43" vertex="1">
          <mxGeometry x="120" width="60" height="60" as="geometry">
            <mxRectangle width="60" height="60" as="alternateBounds" />
          </mxGeometry>
        </mxCell>
        <mxCell id="kp_PE9Vq5TOkweq_zNzJ-47" value="" style="shape=partialRectangle;html=1;whiteSpace=wrap;connectable=0;strokeColor=inherit;overflow=hidden;fillColor=none;top=0;left=0;bottom=0;right=0;pointerEvents=1;" parent="kp_PE9Vq5TOkweq_zNzJ-43" vertex="1">
          <mxGeometry x="180" width="60" height="60" as="geometry">
            <mxRectangle width="60" height="60" as="alternateBounds" />
          </mxGeometry>
        </mxCell>
        <mxCell id="kp_PE9Vq5TOkweq_zNzJ-48" value="" style="shape=partialRectangle;html=1;whiteSpace=wrap;connectable=0;strokeColor=inherit;overflow=hidden;fillColor=none;top=0;left=0;bottom=0;right=0;pointerEvents=1;" parent="kp_PE9Vq5TOkweq_zNzJ-43" vertex="1">
          <mxGeometry x="240" width="60" height="60" as="geometry">
            <mxRectangle width="60" height="60" as="alternateBounds" />
          </mxGeometry>
        </mxCell>
        <mxCell id="kp_PE9Vq5TOkweq_zNzJ-49" value="" style="shape=partialRectangle;html=1;whiteSpace=wrap;connectable=0;strokeColor=inherit;overflow=hidden;fillColor=none;top=0;left=0;bottom=0;right=0;pointerEvents=1;" parent="kp_PE9Vq5TOkweq_zNzJ-43" vertex="1">
          <mxGeometry x="300" width="60" height="60" as="geometry">
            <mxRectangle width="60" height="60" as="alternateBounds" />
          </mxGeometry>
        </mxCell>
        <mxCell id="kp_PE9Vq5TOkweq_zNzJ-59" value="8" style="ellipse;whiteSpace=wrap;html=1;aspect=fixed;fillColor=none;" parent="1" vertex="1">
          <mxGeometry x="170" y="90" width="40" height="40" as="geometry" />
        </mxCell>
        <mxCell id="kp_PE9Vq5TOkweq_zNzJ-60" value="9" style="ellipse;whiteSpace=wrap;html=1;aspect=fixed;fillColor=none;" parent="1" vertex="1">
          <mxGeometry x="170" y="150" width="40" height="40" as="geometry" />
        </mxCell>
        <mxCell id="kp_PE9Vq5TOkweq_zNzJ-61" value="3" style="ellipse;whiteSpace=wrap;html=1;aspect=fixed;fillColor=none;" parent="1" vertex="1">
          <mxGeometry x="170" y="210" width="40" height="40" as="geometry" />
        </mxCell>
        <mxCell id="kp_PE9Vq5TOkweq_zNzJ-62" value="8" style="ellipse;whiteSpace=wrap;html=1;aspect=fixed;fillColor=none;" parent="1" vertex="1">
          <mxGeometry x="170" y="270" width="40" height="40" as="geometry" />
        </mxCell>
        <mxCell id="kp_PE9Vq5TOkweq_zNzJ-63" value="10" style="ellipse;whiteSpace=wrap;html=1;aspect=fixed;fillColor=none;" parent="1" vertex="1">
          <mxGeometry x="170" y="390" width="40" height="40" as="geometry" />
        </mxCell>
        <mxCell id="kp_PE9Vq5TOkweq_zNzJ-64" value="8" style="ellipse;whiteSpace=wrap;html=1;aspect=fixed;fillColor=none;" parent="1" vertex="1">
          <mxGeometry x="170" y="330" width="40" height="40" as="geometry" />
        </mxCell>
        <mxCell id="kp_PE9Vq5TOkweq_zNzJ-65" value="10" style="ellipse;whiteSpace=wrap;html=1;aspect=fixed;fillColor=none;" parent="1" vertex="1">
          <mxGeometry x="230" y="150" width="40" height="40" as="geometry" />
        </mxCell>
        <mxCell id="kp_PE9Vq5TOkweq_zNzJ-66" value="5" style="ellipse;whiteSpace=wrap;html=1;aspect=fixed;fillColor=none;" parent="1" vertex="1">
          <mxGeometry x="230" y="210" width="40" height="40" as="geometry" />
        </mxCell>
        <mxCell id="kp_PE9Vq5TOkweq_zNzJ-67" value="10" style="ellipse;whiteSpace=wrap;html=1;aspect=fixed;fillColor=none;" parent="1" vertex="1">
          <mxGeometry x="230" y="270" width="40" height="40" as="geometry" />
        </mxCell>
        <mxCell id="kp_PE9Vq5TOkweq_zNzJ-68" value="13" style="ellipse;whiteSpace=wrap;html=1;aspect=fixed;fillColor=none;" parent="1" vertex="1">
          <mxGeometry x="230" y="390" width="40" height="40" as="geometry" />
        </mxCell>
        <mxCell id="kp_PE9Vq5TOkweq_zNzJ-69" value="10" style="ellipse;whiteSpace=wrap;html=1;aspect=fixed;fillColor=none;" parent="1" vertex="1">
          <mxGeometry x="230" y="330" width="40" height="40" as="geometry" />
        </mxCell>
        <mxCell id="kp_PE9Vq5TOkweq_zNzJ-70" value="7" style="ellipse;whiteSpace=wrap;html=1;aspect=fixed;fillColor=none;" parent="1" vertex="1">
          <mxGeometry x="290" y="210" width="40" height="40" as="geometry" />
        </mxCell>
        <mxCell id="kp_PE9Vq5TOkweq_zNzJ-71" value="12" style="ellipse;whiteSpace=wrap;html=1;aspect=fixed;fillColor=none;" parent="1" vertex="1">
          <mxGeometry x="290" y="270" width="40" height="40" as="geometry" />
        </mxCell>
        <mxCell id="kp_PE9Vq5TOkweq_zNzJ-72" value="16" style="ellipse;whiteSpace=wrap;html=1;aspect=fixed;fillColor=none;" parent="1" vertex="1">
          <mxGeometry x="290" y="390" width="40" height="40" as="geometry" />
        </mxCell>
        <mxCell id="kp_PE9Vq5TOkweq_zNzJ-73" value="12" style="ellipse;whiteSpace=wrap;html=1;aspect=fixed;fillColor=none;" parent="1" vertex="1">
          <mxGeometry x="290" y="330" width="40" height="40" as="geometry" />
        </mxCell>
        <mxCell id="kp_PE9Vq5TOkweq_zNzJ-74" value="14" style="ellipse;whiteSpace=wrap;html=1;aspect=fixed;fillColor=none;" parent="1" vertex="1">
          <mxGeometry x="350" y="270" width="40" height="40" as="geometry" />
        </mxCell>
        <mxCell id="kp_PE9Vq5TOkweq_zNzJ-75" value="19" style="ellipse;whiteSpace=wrap;html=1;aspect=fixed;fillColor=none;" parent="1" vertex="1">
          <mxGeometry x="350" y="390" width="40" height="40" as="geometry" />
        </mxCell>
        <mxCell id="kp_PE9Vq5TOkweq_zNzJ-76" value="14" style="ellipse;whiteSpace=wrap;html=1;aspect=fixed;fillColor=none;" parent="1" vertex="1">
          <mxGeometry x="350" y="330" width="40" height="40" as="geometry" />
        </mxCell>
        <mxCell id="kp_PE9Vq5TOkweq_zNzJ-77" value="22" style="ellipse;whiteSpace=wrap;html=1;aspect=fixed;fillColor=none;" parent="1" vertex="1">
          <mxGeometry x="410" y="390" width="40" height="40" as="geometry" />
        </mxCell>
        <mxCell id="kp_PE9Vq5TOkweq_zNzJ-78" value="16" style="ellipse;whiteSpace=wrap;html=1;aspect=fixed;fillColor=none;" parent="1" vertex="1">
          <mxGeometry x="410" y="330" width="40" height="40" as="geometry" />
        </mxCell>
        <mxCell id="kp_PE9Vq5TOkweq_zNzJ-79" value="25" style="ellipse;whiteSpace=wrap;html=1;aspect=fixed;fillColor=none;" parent="1" vertex="1">
          <mxGeometry x="470" y="390" width="40" height="40" as="geometry" />
        </mxCell>
        <mxCell id="kp_PE9Vq5TOkweq_zNzJ-88" value="" style="shape=table;startSize=0;container=1;collapsible=0;childLayout=tableLayout;fillColor=none;strokeColor=none;" parent="1" vertex="1">
          <mxGeometry x="120" y="80" width="40" height="360" as="geometry" />
        </mxCell>
        <mxCell id="kp_PE9Vq5TOkweq_zNzJ-89" value="" style="shape=tableRow;horizontal=0;startSize=0;swimlaneHead=0;swimlaneBody=0;strokeColor=inherit;top=0;left=0;bottom=0;right=0;collapsible=0;dropTarget=0;fillColor=none;points=[[0,0.5],[1,0.5]];portConstraint=eastwest;" parent="kp_PE9Vq5TOkweq_zNzJ-88" vertex="1">
          <mxGeometry width="40" height="60" as="geometry" />
        </mxCell>
        <mxCell id="kp_PE9Vq5TOkweq_zNzJ-90" value="i = 1" style="shape=partialRectangle;html=1;whiteSpace=wrap;connectable=0;strokeColor=inherit;overflow=hidden;fillColor=none;top=0;left=0;bottom=0;right=0;pointerEvents=1;" parent="kp_PE9Vq5TOkweq_zNzJ-89" vertex="1">
          <mxGeometry width="40" height="60" as="geometry">
            <mxRectangle width="40" height="60" as="alternateBounds" />
          </mxGeometry>
        </mxCell>
        <mxCell id="kp_PE9Vq5TOkweq_zNzJ-91" value="" style="shape=tableRow;horizontal=0;startSize=0;swimlaneHead=0;swimlaneBody=0;strokeColor=inherit;top=0;left=0;bottom=0;right=0;collapsible=0;dropTarget=0;fillColor=none;points=[[0,0.5],[1,0.5]];portConstraint=eastwest;" parent="kp_PE9Vq5TOkweq_zNzJ-88" vertex="1">
          <mxGeometry y="60" width="40" height="60" as="geometry" />
        </mxCell>
        <mxCell id="kp_PE9Vq5TOkweq_zNzJ-92" value="i = 2" style="shape=partialRectangle;html=1;whiteSpace=wrap;connectable=0;strokeColor=inherit;overflow=hidden;fillColor=none;top=0;left=0;bottom=0;right=0;pointerEvents=1;" parent="kp_PE9Vq5TOkweq_zNzJ-91" vertex="1">
          <mxGeometry width="40" height="60" as="geometry">
            <mxRectangle width="40" height="60" as="alternateBounds" />
          </mxGeometry>
        </mxCell>
        <mxCell id="kp_PE9Vq5TOkweq_zNzJ-93" value="" style="shape=tableRow;horizontal=0;startSize=0;swimlaneHead=0;swimlaneBody=0;strokeColor=inherit;top=0;left=0;bottom=0;right=0;collapsible=0;dropTarget=0;fillColor=none;points=[[0,0.5],[1,0.5]];portConstraint=eastwest;" parent="kp_PE9Vq5TOkweq_zNzJ-88" vertex="1">
          <mxGeometry y="120" width="40" height="60" as="geometry" />
        </mxCell>
        <mxCell id="kp_PE9Vq5TOkweq_zNzJ-94" value="i = 3" style="shape=partialRectangle;html=1;whiteSpace=wrap;connectable=0;strokeColor=inherit;overflow=hidden;fillColor=none;top=0;left=0;bottom=0;right=0;pointerEvents=1;" parent="kp_PE9Vq5TOkweq_zNzJ-93" vertex="1">
          <mxGeometry width="40" height="60" as="geometry">
            <mxRectangle width="40" height="60" as="alternateBounds" />
          </mxGeometry>
        </mxCell>
        <mxCell id="kp_PE9Vq5TOkweq_zNzJ-95" value="" style="shape=tableRow;horizontal=0;startSize=0;swimlaneHead=0;swimlaneBody=0;strokeColor=inherit;top=0;left=0;bottom=0;right=0;collapsible=0;dropTarget=0;fillColor=none;points=[[0,0.5],[1,0.5]];portConstraint=eastwest;" parent="kp_PE9Vq5TOkweq_zNzJ-88" vertex="1">
          <mxGeometry y="180" width="40" height="60" as="geometry" />
        </mxCell>
        <mxCell id="kp_PE9Vq5TOkweq_zNzJ-96" value="i = 4" style="shape=partialRectangle;html=1;whiteSpace=wrap;connectable=0;strokeColor=inherit;overflow=hidden;fillColor=none;top=0;left=0;bottom=0;right=0;pointerEvents=1;" parent="kp_PE9Vq5TOkweq_zNzJ-95" vertex="1">
          <mxGeometry width="40" height="60" as="geometry">
            <mxRectangle width="40" height="60" as="alternateBounds" />
          </mxGeometry>
        </mxCell>
        <mxCell id="kp_PE9Vq5TOkweq_zNzJ-97" value="" style="shape=tableRow;horizontal=0;startSize=0;swimlaneHead=0;swimlaneBody=0;strokeColor=inherit;top=0;left=0;bottom=0;right=0;collapsible=0;dropTarget=0;fillColor=none;points=[[0,0.5],[1,0.5]];portConstraint=eastwest;" parent="kp_PE9Vq5TOkweq_zNzJ-88" vertex="1">
          <mxGeometry y="240" width="40" height="60" as="geometry" />
        </mxCell>
        <mxCell id="kp_PE9Vq5TOkweq_zNzJ-98" value="i = 5" style="shape=partialRectangle;html=1;whiteSpace=wrap;connectable=0;strokeColor=inherit;overflow=hidden;fillColor=none;top=0;left=0;bottom=0;right=0;pointerEvents=1;" parent="kp_PE9Vq5TOkweq_zNzJ-97" vertex="1">
          <mxGeometry width="40" height="60" as="geometry">
            <mxRectangle width="40" height="60" as="alternateBounds" />
          </mxGeometry>
        </mxCell>
        <mxCell id="kp_PE9Vq5TOkweq_zNzJ-99" value="" style="shape=tableRow;horizontal=0;startSize=0;swimlaneHead=0;swimlaneBody=0;strokeColor=inherit;top=0;left=0;bottom=0;right=0;collapsible=0;dropTarget=0;fillColor=none;points=[[0,0.5],[1,0.5]];portConstraint=eastwest;" parent="kp_PE9Vq5TOkweq_zNzJ-88" vertex="1">
          <mxGeometry y="300" width="40" height="60" as="geometry" />
        </mxCell>
        <mxCell id="kp_PE9Vq5TOkweq_zNzJ-100" value="i = 6" style="shape=partialRectangle;html=1;whiteSpace=wrap;connectable=0;strokeColor=inherit;overflow=hidden;fillColor=none;top=0;left=0;bottom=0;right=0;pointerEvents=1;" parent="kp_PE9Vq5TOkweq_zNzJ-99" vertex="1">
          <mxGeometry width="40" height="60" as="geometry">
            <mxRectangle width="40" height="60" as="alternateBounds" />
          </mxGeometry>
        </mxCell>
        <mxCell id="kp_PE9Vq5TOkweq_zNzJ-101" value="1" style="ellipse;whiteSpace=wrap;html=1;aspect=fixed;fillColor=none;" parent="1" vertex="1">
          <mxGeometry x="80" y="90" width="40" height="40" as="geometry" />
        </mxCell>
        <mxCell id="kp_PE9Vq5TOkweq_zNzJ-102" value="1" style="ellipse;whiteSpace=wrap;html=1;aspect=fixed;fillColor=none;" parent="1" vertex="1">
          <mxGeometry x="80" y="150" width="40" height="40" as="geometry" />
        </mxCell>
        <mxCell id="kp_PE9Vq5TOkweq_zNzJ-103" value="2" style="ellipse;whiteSpace=wrap;html=1;aspect=fixed;fillColor=none;" parent="1" vertex="1">
          <mxGeometry x="80" y="210" width="40" height="40" as="geometry" />
        </mxCell>
        <mxCell id="kp_PE9Vq5TOkweq_zNzJ-104" value="2" style="ellipse;whiteSpace=wrap;html=1;aspect=fixed;fillColor=none;" parent="1" vertex="1">
          <mxGeometry x="80" y="270" width="40" height="40" as="geometry" />
        </mxCell>
        <mxCell id="kp_PE9Vq5TOkweq_zNzJ-105" value="3" style="ellipse;whiteSpace=wrap;html=1;aspect=fixed;fillColor=none;" parent="1" vertex="1">
          <mxGeometry x="80" y="390" width="40" height="40" as="geometry" />
        </mxCell>
        <mxCell id="kp_PE9Vq5TOkweq_zNzJ-106" value="2" style="ellipse;whiteSpace=wrap;html=1;aspect=fixed;fillColor=none;" parent="1" vertex="1">
          <mxGeometry x="80" y="330" width="40" height="40" as="geometry" />
        </mxCell>
        <mxCell id="kp_PE9Vq5TOkweq_zNzJ-107" value="7" style="ellipse;whiteSpace=wrap;html=1;aspect=fixed;fillColor=none;" parent="1" vertex="1">
          <mxGeometry x="20" y="90" width="40" height="40" as="geometry" />
        </mxCell>
        <mxCell id="kp_PE9Vq5TOkweq_zNzJ-108" value="8" style="ellipse;whiteSpace=wrap;html=1;aspect=fixed;fillColor=none;" parent="1" vertex="1">
          <mxGeometry x="20" y="150" width="40" height="40" as="geometry" />
        </mxCell>
        <mxCell id="kp_PE9Vq5TOkweq_zNzJ-109" value="1" style="ellipse;whiteSpace=wrap;html=1;aspect=fixed;fillColor=none;" parent="1" vertex="1">
          <mxGeometry x="20" y="210" width="40" height="40" as="geometry" />
        </mxCell>
        <mxCell id="kp_PE9Vq5TOkweq_zNzJ-110" value="6" style="ellipse;whiteSpace=wrap;html=1;aspect=fixed;fillColor=none;" parent="1" vertex="1">
          <mxGeometry x="20" y="270" width="40" height="40" as="geometry" />
        </mxCell>
        <mxCell id="kp_PE9Vq5TOkweq_zNzJ-111" value="7" style="ellipse;whiteSpace=wrap;html=1;aspect=fixed;fillColor=none;" parent="1" vertex="1">
          <mxGeometry x="20" y="390" width="40" height="40" as="geometry" />
        </mxCell>
        <mxCell id="kp_PE9Vq5TOkweq_zNzJ-112" value="6" style="ellipse;whiteSpace=wrap;html=1;aspect=fixed;fillColor=none;" parent="1" vertex="1">
          <mxGeometry x="20" y="330" width="40" height="40" as="geometry" />
        </mxCell>
        <mxCell id="kp_PE9Vq5TOkweq_zNzJ-115" value="" style="shape=table;startSize=0;container=1;collapsible=0;childLayout=tableLayout;fillColor=none;strokeColor=none;" parent="1" vertex="1">
          <mxGeometry x="160" y="60" width="360" height="20" as="geometry" />
        </mxCell>
        <mxCell id="kp_PE9Vq5TOkweq_zNzJ-116" value="" style="shape=tableRow;horizontal=0;startSize=0;swimlaneHead=0;swimlaneBody=0;strokeColor=inherit;top=0;left=0;bottom=0;right=0;collapsible=0;dropTarget=0;fillColor=none;points=[[0,0.5],[1,0.5]];portConstraint=eastwest;" parent="kp_PE9Vq5TOkweq_zNzJ-115" vertex="1">
          <mxGeometry width="360" height="20" as="geometry" />
        </mxCell>
        <mxCell id="kp_PE9Vq5TOkweq_zNzJ-117" value="t = 1" style="shape=partialRectangle;html=1;whiteSpace=wrap;connectable=0;strokeColor=inherit;overflow=hidden;fillColor=none;top=0;left=0;bottom=0;right=0;pointerEvents=1;" parent="kp_PE9Vq5TOkweq_zNzJ-116" vertex="1">
          <mxGeometry width="60" height="20" as="geometry">
            <mxRectangle width="60" height="20" as="alternateBounds" />
          </mxGeometry>
        </mxCell>
        <mxCell id="kp_PE9Vq5TOkweq_zNzJ-118" value="t = 2" style="shape=partialRectangle;html=1;whiteSpace=wrap;connectable=0;strokeColor=inherit;overflow=hidden;fillColor=none;top=0;left=0;bottom=0;right=0;pointerEvents=1;" parent="kp_PE9Vq5TOkweq_zNzJ-116" vertex="1">
          <mxGeometry x="60" width="60" height="20" as="geometry">
            <mxRectangle width="60" height="20" as="alternateBounds" />
          </mxGeometry>
        </mxCell>
        <mxCell id="kp_PE9Vq5TOkweq_zNzJ-119" value="t = 3" style="shape=partialRectangle;html=1;whiteSpace=wrap;connectable=0;strokeColor=inherit;overflow=hidden;fillColor=none;top=0;left=0;bottom=0;right=0;pointerEvents=1;" parent="kp_PE9Vq5TOkweq_zNzJ-116" vertex="1">
          <mxGeometry x="120" width="60" height="20" as="geometry">
            <mxRectangle width="60" height="20" as="alternateBounds" />
          </mxGeometry>
        </mxCell>
        <mxCell id="kp_PE9Vq5TOkweq_zNzJ-120" value="t = 4" style="shape=partialRectangle;html=1;whiteSpace=wrap;connectable=0;strokeColor=inherit;overflow=hidden;fillColor=none;top=0;left=0;bottom=0;right=0;pointerEvents=1;" parent="kp_PE9Vq5TOkweq_zNzJ-116" vertex="1">
          <mxGeometry x="180" width="60" height="20" as="geometry">
            <mxRectangle width="60" height="20" as="alternateBounds" />
          </mxGeometry>
        </mxCell>
        <mxCell id="kp_PE9Vq5TOkweq_zNzJ-121" value="t = 5" style="shape=partialRectangle;html=1;whiteSpace=wrap;connectable=0;strokeColor=inherit;overflow=hidden;fillColor=none;top=0;left=0;bottom=0;right=0;pointerEvents=1;" parent="kp_PE9Vq5TOkweq_zNzJ-116" vertex="1">
          <mxGeometry x="240" width="60" height="20" as="geometry">
            <mxRectangle width="60" height="20" as="alternateBounds" />
          </mxGeometry>
        </mxCell>
        <mxCell id="kp_PE9Vq5TOkweq_zNzJ-122" value="t = 6" style="shape=partialRectangle;html=1;whiteSpace=wrap;connectable=0;strokeColor=inherit;overflow=hidden;fillColor=none;top=0;left=0;bottom=0;right=0;pointerEvents=1;" parent="kp_PE9Vq5TOkweq_zNzJ-116" vertex="1">
          <mxGeometry x="300" width="60" height="20" as="geometry">
            <mxRectangle width="60" height="20" as="alternateBounds" />
          </mxGeometry>
        </mxCell>
        <mxCell id="kp_PE9Vq5TOkweq_zNzJ-123" value="" style="shape=table;startSize=0;container=1;collapsible=0;childLayout=tableLayout;fillColor=none;strokeColor=none;" parent="1" vertex="1">
          <mxGeometry x="10" y="60" width="120" height="20" as="geometry" />
        </mxCell>
        <mxCell id="kp_PE9Vq5TOkweq_zNzJ-124" value="" style="shape=tableRow;horizontal=0;startSize=0;swimlaneHead=0;swimlaneBody=0;strokeColor=inherit;top=0;left=0;bottom=0;right=0;collapsible=0;dropTarget=0;fillColor=none;points=[[0,0.5],[1,0.5]];portConstraint=eastwest;" parent="kp_PE9Vq5TOkweq_zNzJ-123" vertex="1">
          <mxGeometry width="120" height="20" as="geometry" />
        </mxCell>
        <mxCell id="kp_PE9Vq5TOkweq_zNzJ-125" value="aᵢ" style="shape=partialRectangle;html=1;whiteSpace=wrap;connectable=0;strokeColor=inherit;overflow=hidden;fillColor=none;top=0;left=0;bottom=0;right=0;pointerEvents=1;" parent="kp_PE9Vq5TOkweq_zNzJ-124" vertex="1">
          <mxGeometry width="60" height="20" as="geometry">
            <mxRectangle width="60" height="20" as="alternateBounds" />
          </mxGeometry>
        </mxCell>
        <mxCell id="kp_PE9Vq5TOkweq_zNzJ-126" value="bᵢ" style="shape=partialRectangle;html=1;whiteSpace=wrap;connectable=0;strokeColor=inherit;overflow=hidden;fillColor=none;top=0;left=0;bottom=0;right=0;pointerEvents=1;" parent="kp_PE9Vq5TOkweq_zNzJ-124" vertex="1">
          <mxGeometry x="60" width="60" height="20" as="geometry">
            <mxRectangle width="60" height="20" as="alternateBounds" />
          </mxGeometry>
        </mxCell>
      </root>
    </mxGraphModel>
  </diagram>
</mxfile>
